<svg xmlns="http://www.w3.org/2000/svg" xmlns:xlink="http://www.w3.org/1999/xlink" viewBox="0 0 1354 187.18"><defs><style>.cls-1,.cls-2,.cls-3{stroke:#010101;stroke-miterlimit:10;}.cls-1{fill:url(#linear-gradient);}.cls-2,.cls-5{fill:#2a0f0d;}.cls-3,.cls-4{fill:#662d2b;}</style><linearGradient id="linear-gradient" x1="0.5" y1="94.68" x2="1353.5" y2="94.68" gradientUnits="userSpaceOnUse"><stop offset="0.01" stop-color="#010101"/><stop offset="0.4" stop-color="#242021"/><stop offset="0.48" stop-color="#070707"/><stop offset="1"/></linearGradient></defs><title>Asset 1</title><g id="Layer_2" data-name="Layer 2"><g id="Floor"><g id="Layer_7" data-name="Layer 7"><rect class="cls-1" x="0.5" y="8.18" width="1353" height="173"/></g><g id="Layer_5" data-name="Layer 5"><polygon class="cls-2" points="63.23 57.38 61.69 27.46 61.01 14.27 681.03 4.87 682.14 26.43 673.1 29.05 682.41 31.77 683.25 47.98 63.23 57.38"/><path class="cls-3" d="M315.92,70.26,544.1,49.38s87-1.32,98.21,7.64c0,0-98.38-11-98.08-5.15S315.92,70.26,315.92,70.26Z" transform="translate(0 -32.48)"/><path class="cls-3" d="M62.72,79.87c6.23,2.35,328.25-6.59,302.5-2.05S62.53,76.35,62.53,76.35L61.69,60c15.53,4.74,351.16-7,343.65-4.38s-343.72,3-343.72,3" transform="translate(0 -32.48)"/><path class="cls-3" d="M599.88,64.3s-37.33-12.71-63-5.68-28.67,7.07-28.67,7.07S562.17,74,599.88,64.3Z" transform="translate(0 -32.48)"/><path class="cls-2" d="M586.1,63.68s-18.88-10.5-65.67,1C520.43,64.67,563.57,71.49,586.1,63.68Z" transform="translate(0 -32.48)"/><path class="cls-3" d="M575.32,62.18s-27.66-2.9-38.14,1.41C537.19,63.59,555.81,69.12,575.32,62.18Z" transform="translate(0 -32.48)"/><path class="cls-2" d="M683.94,83l.7,29.93.31,13.19-620.21,4.3-1-43.12,372.91-2.59,36.07,3.08s19.81-1.13,13.66-1.87,32.74-1.79,32.74-1.79Z" transform="translate(0 -32.48)"/><path class="cls-4" d="M64.24,117.34c3.87,2.44,207.12-2.13,190.77,2.05s-190.8-5.58-190.8-5.58l-.14-16.34c9.68,5,221.57-2.21,216.77.29S64.06,96.11,64.06,96.11" transform="translate(0 -32.48)"/><path class="cls-5" d="M160.4,104.88s18.59,10.65,65.69-.46C226.09,104.42,183.14,97.26,160.4,104.88Z" transform="translate(0 -32.48)"/><polygon class="cls-2" points="1301.87 0.5 1302.57 30.43 1302.88 43.62 682.68 47.93 682.36 34.63 695.79 24.56 681.9 14.82 681.66 4.81 1301.87 0.5"/><path class="cls-4" d="M721.74,54.11,951,52.33s87.06.92,97.68,3.24c0,0-97.65-4-97.7-2.64S721.74,54.11,721.74,54.11Z" transform="translate(0 -32.48)"/><path class="cls-4" d="M1302.1,43c-4-2.42-211.62,3.09-195-1.18s195.06,4.7,195.06,4.7l.38,16.34c-10-4.91-226.38,3.23-221.52.71s221.55.66,221.55.66" transform="translate(0 -32.48)"/><path class="cls-5" d="M778.33,54.86S796.91,65.51,844,54.4C844,54.4,801.07,47.24,778.33,54.86Z" transform="translate(0 -32.48)"/><path class="cls-4" d="M864.82,43.68S892.4,46.81,903,42.59C903,42.59,884.52,36.91,864.82,43.68Z" transform="translate(0 -32.48)"/><polygon class="cls-2" points="693.79 93.51 694.5 123.44 694.81 136.63 74.6 140.94 73.59 97.82 693.79 93.51"/><path class="cls-4" d="M694,136c-6.17-2.4-328.4,3.9-302.52-.43s302.61,4,302.61,4l.38,16.34c-15.39-4.87-351.31,4.1-343.73,1.56s343.76-.18,343.76-.18" transform="translate(0 -32.48)"/><path class="cls-4" d="M156.49,147.14s37,13,62.79,6.2,28.87-6.84,28.87-6.84S194.46,137.75,156.49,147.14Z" transform="translate(0 -32.48)"/><path class="cls-5" d="M170.26,147.87s18.59,10.65,65.69-.46C235.94,147.41,193,140.25,170.26,147.87Z" transform="translate(0 -32.48)"/><path class="cls-4" d="M181,149.46s27.57,3.13,38.17-1.09C219.16,148.36,200.69,142.68,181,149.46Z" transform="translate(0 -32.48)"/><polygon class="cls-2" points="1303.31 40.1 1304.89 70.02 1305.59 83.21 685.59 92.89 683.3 49.78 1303.31 40.1"/><path class="cls-4" d="M867.32,95l135.63,0s51,2.83,56.53,7.08c0,0-56.27-8.5-56.73-6S867.32,95,867.32,95Z" transform="translate(0 -32.48)"/><path class="cls-4" d="M1303.83,82.57c-6.24-2.35-328.24,6.74-302.5,2.19S1304,86.09,1304,86.09l.87,16.33c-15.53-4.74-351.14,7.14-343.64,4.54S1305,103.79,1305,103.79" transform="translate(0 -32.48)"/><path class="cls-4" d="M867.9,105.27s16.76,16.23,27.58,7.81,12.14-8.43,12.14-8.43S883.85,93.69,867.9,105.27Z" transform="translate(0 -32.48)"/><path class="cls-5" d="M873.92,106.21s8.65,13.26,28.46-.44C902.38,105.76,883.35,96.79,873.92,106.21Z" transform="translate(0 -32.48)"/><path class="cls-4" d="M878.66,108.19s12.13,3.93,16.49-1.29C895.15,106.91,886.83,99.82,878.66,108.19Z" transform="translate(0 -32.48)"/><polygon class="cls-2" points="1306.3 86.72 1307.01 116.65 1307.32 129.84 687.11 134.14 686.81 121.5 705.07 115.68 686.48 107.3 686.1 91.02 1306.3 86.72"/><path class="cls-4" d="M848,154.94l-51.83,2.84s-9.4-4.83,3.63-13.56c0,0-8.79,16.53.24,11.34S848,154.94,848,154.94Z" transform="translate(0 -32.48)"/><path class="cls-4" d="M960.17,146.31c-1.23-1.22-64.49,1.26-59.44-.86s59.48,2.64,59.48,2.64l.19,8.24c-3.06-2.49-69,1.32-67.52.05s67.54.64,67.54.64" transform="translate(0 -32.48)"/><path class="cls-4" d="M802.6,142.08s8.3,13.21,13.79,6.54,6.16-6.68,6.16-6.68S810.7,132.9,802.6,142.08Z" transform="translate(0 -32.48)"/><path class="cls-5" d="M805.62,142.89s4.25,10.75,14.3-.1C819.92,142.79,810.43,135.39,805.62,142.89Z" transform="translate(0 -32.48)"/><polygon class="cls-2" points="1305.67 129.39 1307.29 159.31 1308 172.49 688.01 182.38 685.68 139.27 1305.67 129.39"/><path class="cls-4" d="M1306.21,171.85c-2.55-2.41-129.71,3.69-119.67-.62s119.86,4.14,119.86,4.14l.88,16.33c-6.31-4.88-138.76,3.87-135.87,1.34s135.95,0,135.95,0" transform="translate(0 -32.48)"/><polygon class="cls-2" points="685.25 139.25 685.53 151.33 678.15 160.87 685.95 169.18 686.26 182.37 66.06 186.68 65.04 143.56 685.25 139.25"/><path class="cls-4" d="M432,189.24l-228.73,19s-87.07.6-98-8.44c0,0,98.06,11.76,97.92,6S432,189.24,432,189.24Z" transform="translate(0 -32.48)"/><path class="cls-4" d="M536.07,189.87s9.43,12.62,15.75,6.23,7.08-6.39,7.08-6.39S545.37,181.08,536.07,189.87Z" transform="translate(0 -32.48)"/><path class="cls-5" d="M161.71,193.61s18.59,10.65,65.69-.46C227.4,193.15,184.45,186,161.71,193.61Z" transform="translate(0 -32.48)"/><path class="cls-4" d="M734.86,123.16" transform="translate(0 -32.48)"/><path class="cls-5" d="M682.16,0" transform="translate(0 -32.48)"/><path class="cls-5" d="M833,109.71" transform="translate(0 -32.48)"/><path class="cls-5" d="M727.9,103.78" transform="translate(0 -32.48)"/><path class="cls-4" d="M690,194.67s219.82-5,220.08,0" transform="translate(0 -32.48)"/><path class="cls-4" d="M693.83,180.51s270.3-4.1,268.9-1.59S694,183,694,183" transform="translate(0 -32.48)"/><path class="cls-4" d="M1306.76,138.57s-117.13-18.5-140.92-5.7l-12,3.5s151.07,3.17,153.89,9.52" transform="translate(0 -32.48)"/><path class="cls-4" d="M1158.67,142.11s41.06-3.94,46.11,5.11c0,0-50.14,5.74-46-2.62" transform="translate(0 -32.48)"/><path class="cls-4" d="M684.5,93.83s-116.93-4.16-138.14-.52C546.36,93.32,653.17,97.75,684.5,93.83Z" transform="translate(0 -32.48)"/><path class="cls-4" d="M458,98s-36.91-4.42-41.23.63Z" transform="translate(0 -32.48)"/><line class="cls-5" x1="521.41" y1="51.26" x2="476.97" y2="51.94"/></g></g></g></svg>