<svg xmlns="http://www.w3.org/2000/svg" xmlns:xlink="http://www.w3.org/1999/xlink" viewBox="0 0 628 518.12"><defs><style>.cls-1,.cls-19,.cls-20{fill:#fff;}.cls-1,.cls-12,.cls-13,.cls-16,.cls-17,.cls-18,.cls-19,.cls-2,.cls-3,.cls-4,.cls-5,.cls-7{stroke:#000;stroke-miterlimit:10;}.cls-2{opacity:0.34;fill:url(#radial-gradient);}.cls-3{fill:#2a0f0d;}.cls-4,.cls-5{fill:#662d2b;}.cls-5{opacity:0.27;}.cls-6{fill:#666766;}.cls-11,.cls-12,.cls-13,.cls-7{fill:#f0a8ca;}.cls-14,.cls-15,.cls-8,.cls-9{fill:#f38298;}.cls-9{opacity:0.55;}.cls-10,.cls-17,.cls-18{fill:#f8bdd1;}.cls-12{stroke-width:0.75px;}.cls-13,.cls-16,.cls-17,.cls-19{stroke-width:0.5px;}.cls-14{opacity:0.39;}.cls-15{opacity:0.37;}</style><radialGradient id="radial-gradient" cx="265" cy="506.12" r="166.57" gradientUnits="userSpaceOnUse"><stop offset="0.1" stop-color="#020202"/><stop offset="0.41" stop-color="#03233e"/><stop offset="0.77"/></radialGradient></defs><title>Asset 1</title><g id="Layer_2" data-name="Layer 2"><g id="Lazy_way_of_making_the_frame_larger" data-name="Lazy way of making the frame larger"><rect class="cls-1" x="0.5" y="495.62" width="627" height="22"/></g><g id="Shadow"><ellipse class="cls-2" cx="265" cy="506.12" rx="235.5" ry="5.5"/></g><g id="Hangpost"><g id="Post_base" data-name="Post base"><path class="cls-3" d="M109.61,504.87s35.23,8.31,78.94,1.2c0,0,17.37-129.42,11-141.91,0,0,6.68-11.12,5.86-28.1s11.27-53.59,11.27-53.59,12-36.64,8.94-42.5,11.33-53.86,11.33-53.86l-1.76-36.45,11.44-9.58,2.5-11.87-4.7-.27,6-5.79L247,118.81S264.12,99,258.43,85.73s17.64-48.42,17.64-48.42-2.86-17.88-7.52-10.65c0,0-7.53-31.67-30.06-.55,0,0-15.39,2.74-14.74,16.23s-1.3,45.62-1.3,45.62-24,26.3-17.1,31.92-39.7,91-36,108.8S147,307,147,307s-20.61,67.58-19.6,80.73l-3.7-1.64S103.44,497.16,109.61,504.87Z"/></g><g id="Upper_Post" data-name="Upper Post"><path class="cls-3" d="M255.5,23.62s-20,12,0,27c0,0,115-21,121-20l2,1,2-2,79-12s12-10-3-17c0,0-123,11-126,15s-4,0-4,0l-31,5Z"/></g><g id="Layer_27" data-name="Layer 27"><path class="cls-4" d="M458.94,17.7S471.5,8.62,456.5.62h0s-15.11,9.17,2.44,17.08"/></g><g id="Post_Lighting" data-name="Post Lighting"><path class="cls-5" d="M188.5,506.62s-49,4.64-58,1.32,5-111.32,5-111.32l-3-5s45-147,52-141c0,0,5-24,1-28s24-71,24-71,6-26,3-31,6-15,6-15l11-15,3-48s10-14,12-14c0,0-10,21-2,24s18-2,18-2l8.5-1.5s-12.5,26-11.5,29.75,8,19.75-11,39.75l4,4-6,5,5,1-3,11-11,10,1,36s-14.94,53-10.47,56-18,66.5-16.78,69.75c0,0-5.75,26.25-2.75,30.25s-7,23-7,23S204.5,390.62,188.5,506.62Z"/></g><g id="Top_post_light" data-name="Top post light"><path class="cls-4" d="M449.5,6.62l-120,16s-4,5-5,3-72,7-72,7-2-4,4-7,4.15-2.39,4.15-2.39L325.4,15.8s2.1,2.82,5.1-1.18S454,.62,454,.62,448.5,5.62,449.5,6.62Z"/></g></g><g id="Pig"><g id="Rope"><polyline class="cls-6" points="435.54 163.98 434.81 139.85 439.19 12.12 442.1 12.12 439.19 87.34"/></g><g id="Left_Arm" data-name="Left Arm"><g id="LEft_arm_meat" data-name="LEft arm meat"><path class="cls-7" d="M382.3,172.48s-52.46,56.07-33.51,94.39c0,0,8.75-12.77,14.58-9.93l5.83,2.84"/></g><g id="Layer_19" data-name="Layer 19"><path class="cls-4" d="M348.8,266.87s0,8.52,10.21,15.61c3.48,2.42,5.78,2.2,7.29.85,2.91-2.6,2.91-9.37,2.91-9.37v9.93s14.58-7.1,7.29-15.61l-7.29-8.52S360.46,249.84,348.8,266.87Z"/></g><g id="Layer_39" data-name="Layer 39"><path class="cls-8" d="M368,199.12s4-7,6-6,3.68-10.91,3.68-10.91S369,186.12,368,200.12"/></g></g><g id="Left_Leg" data-name="Left Leg"><g id="Layer_22" data-name="Layer 22"><path class="cls-7" d="M390.37,300.43s-24.08,24.62-22.63,30.3c0,0,10.21,2.84,8.75,8.52,0,0-.65,11.35,23.73-29.8h0s-10.56-9.51-9.85-9"/><path class="cls-4" d="M370.67,329.32s-7.29,0-10.21,4.26,8.75,14.19,13.12,12.77,7.29-1.42,7.29-4.26a6.13,6.13,0,0,0-1.46-4.26S379.41,332.15,370.67,329.32Z"/></g></g><g id="Torso"><g id="Layer_16" data-name="Layer 16"><ellipse class="cls-7" cx="440.64" cy="231.39" rx="75.81" ry="92.25"/></g><g id="Shadows"><path class="cls-8" d="M442,237.12"/><path class="cls-9" d="M380.5,177.62s-44,110,70,137l5.3,6.18s-46.94,11.13-78.12-39C377.68,281.78,349.5,224.62,380.5,177.62Z"/></g><g id="Nipples"><ellipse class="cls-10" cx="449.76" cy="201.94" rx="4.74" ry="4.61"/><path class="cls-10" d="M396.71,197.8a4.59,4.59,0,0,1-3.7,5.39,4.71,4.71,0,0,1-5.54-3.6,4.59,4.59,0,0,1,3.7-5.39A4.71,4.71,0,0,1,396.71,197.8Z"/><path class="cls-11" d="M396.33,197.55a2.1,2.1,0,0,1-1.85,2.34,2.16,2.16,0,0,1-2.63-1.47,2.1,2.1,0,0,1,1.85-2.34A2.16,2.16,0,0,1,396.33,197.55Z"/><path class="cls-11" d="M453.65,200.39a2.1,2.1,0,0,1-1.85,2.34,2.16,2.16,0,0,1-2.63-1.47,2.1,2.1,0,0,1,1.85-2.34A2.16,2.16,0,0,1,453.65,200.39Z"/><path class="cls-12" d="M419.51,276.1s2.92,1.42,4.37,0"/><path class="cls-12" d="M423.88,275.8s.06,3.17,2,3.77"/><path class="cls-13" d="M423,276.44s3-1.31,2.76-3.3"/></g></g><g id="Right_Arm" data-name="Right Arm"><g id="Layer_20" data-name="Layer 20"><path class="cls-7" d="M499,172.48s51,56.07,10.18,119.93c0,0,2.92-21.29-17.49-17,0,0,23.33-34.06-16-78.06"/></g><g id="Shadows-2" data-name="Shadows"><path class="cls-8" d="M542,239.12"/><line class="cls-8" x1="498" y1="215.12" x2="483" y2="203.12"/><path class="cls-14" d="M491.67,275.39S499,239.12,476,199.12c0,0,35.34,34.53,15.67,76.27"/></g><g id="Hand"><path class="cls-4" d="M490.21,275.39s-11.66,9.93-5.83,19.87,5.83,7.1,5.83,7.1-2.92-7.1,0-12.77-4.37,14.19,2.92,12.77,14.58-7.1,14.58-7.1v-2.84S512.08,271.13,490.21,275.39Z"/></g></g><g id="Right_leg" data-name="Right leg"><path class="cls-7" d="M472.72,309.45s21.87,36.9,13.12,32.64-16,7.1-16,7.1c-4.37-1.42-16-32.64-16-32.64"/><g id="Foot"><path class="cls-4" d="M469.8,349.19s-2.92,9.93,1.46,9.93,29.16,0,24.78-5.68a104.22,104.22,0,0,0-8.75-9.93S477.09,336.41,469.8,349.19Z"/></g></g><g id="Head"><ellipse class="cls-7" cx="439.19" cy="107.21" rx="65.61" ry="54.64"/><g id="Shadows-3" data-name="Shadows"><g id="Layer_38" data-name="Layer 38"><path class="cls-11" d="M420,150.12l43-3s7,28-28,33-31-14-31-14-1-8,12-15"/></g><path class="cls-15" d="M449.14,129S433.67,138,430,138.29s-38.67,2.33-41.33-1.67-12.33-14.5-10.83-17.33,1.21-3.11,4.77-3.47S449.14,129,449.14,129"/></g><g id="Ear_left" data-name="Ear left"><path class="cls-7" d="M399.82,63.49s1.46-22.28-2.92-23.7l-4.37-1.42v4.26s-2.92-2.84-2.92,0c0,0,4.37,7.1,2.92,9.93s-4,22.81-7.82,24.18,7.82-4.31,7.82-4.31"/></g><g id="Eyes"><ellipse class="cls-16" cx="399.82" cy="85.21" rx="4.37" ry="4.26"/><ellipse class="cls-16" cx="457.41" cy="88.76" rx="5.1" ry="4.97"/></g><g id="Nose_wrap" data-name="Nose wrap"><g id="Nose_base" data-name="Nose base"><path class="cls-17" d="M432.94,130.42s11.82,0,16.19-1.42S466.63,99.2,455,99.2,418.52,95,418.52,95l14.42,35.44"/><path class="cls-7" d="M471.94,71.44s20.41-9.93,19-17,1.46-4.26,1.46-4.26l2.92-2.84s2.92,21.29,0,24.13S501.1,88.47,488,87s-5.83,2.84-7.29,0"/></g><path id="Nose" class="cls-13" d="M435.69,98.24s20.26-1.19-1.37,32c0,0-24.83,3-44.84-1.81,0,0-21.14-30.94-.88-32.13S400.08,90.79,435.69,98.24Z"/><g id="Noseholes"><ellipse class="cls-16" cx="397.38" cy="112.68" rx="6.56" ry="10.64"/><ellipse class="cls-16" cx="422.16" cy="112.68" rx="6.56" ry="10.64"/></g><g id="nose_sides" data-name="nose sides"><path class="cls-18" d="M422,123.14s-11.23-12.67.75-20.52l.65-.37s-6.1-1.59-8.28,9.2C415.12,111.45,415.8,123,422,123.14Z"/><path class="cls-18" d="M397.43,123.14s-11.93-12.25.79-19.84l.7-.36s-6.48-1.54-8.79,8.9C390.12,111.84,390.85,123,397.43,123.14Z"/></g></g><g id="Eye_lights" data-name="Eye lights"><path class="cls-19" d="M460.6,90.45s-.23-2.52.74-2.23S460.6,90.45,460.6,90.45Z"/><path class="cls-20" d="M402.89,83.42a1,1,0,0,0-.71-1.14c-.92-.27-.89.11-.89.11l.74.28A2.22,2.22,0,0,0,402.89,83.42Z"/><path class="cls-20" d="M458.57,85.16a2.2,2.2,0,0,1,2.8,1.48C462,88.78,458.57,85.16,458.57,85.16Z"/><path class="cls-20" d="M401,83.12"/></g><g id="Layer_37" data-name="Layer 37"><path class="cls-8" d="M478,77.12s17-12,16-19c0,0,2,9-1,13s-3,10-3,10l-11,1Z"/></g></g></g></g></svg>